<svg xmlns="http://www.w3.org/2000/svg" xmlns:xlink="http://www.w3.org/1999/xlink" width="700" zoomAndPan="magnify" viewBox="0 0 525 149.999998" height="200" preserveAspectRatio="xMidYMid meet" version="1.0"><defs><g/><clipPath id="e02d413fea"><path d="M 124.394531 56 L 174 56 L 174 108.285156 L 124.394531 108.285156 Z M 124.394531 56 " clip-rule="nonzero"/></clipPath><clipPath id="b7725907bd"><path d="M 187 64 L 190.996094 64 L 190.996094 68 L 187 68 Z M 187 64 " clip-rule="nonzero"/></clipPath><clipPath id="d30b83445e"><path d="M 160 41.683594 L 169 41.683594 L 169 51 L 160 51 Z M 160 41.683594 " clip-rule="nonzero"/></clipPath></defs><path fill="#ee2528" d="M 173.988281 72.507812 L 168.171875 66.6875 C 167.335938 66.035156 166.582031 65.285156 165.933594 64.449219 L 161.269531 59.789062 C 160.859375 59.375 160.316406 59.167969 159.777344 59.167969 C 159.234375 59.167969 158.691406 59.375 158.28125 59.789062 C 157.457031 60.613281 157.457031 61.953125 158.28125 62.777344 L 171 75.496094 C 171.824219 76.320312 173.164062 76.320312 173.988281 75.496094 C 174.8125 74.671875 174.8125 73.332031 173.988281 72.507812 Z M 173.988281 72.507812 " fill-opacity="1" fill-rule="nonzero"/><path fill="#ee2528" d="M 186.371094 56.65625 C 186.371094 55.25 186.085938 53.910156 185.578125 52.683594 C 186.601562 50.210938 185.710938 47.90625 185.214844 47.40625 C 184.714844 46.90625 182.410156 46.015625 179.9375 47.042969 C 178.710938 46.535156 177.371094 46.25 175.964844 46.25 C 170.226562 46.25 165.558594 50.917969 165.558594 56.65625 C 165.558594 59.007812 166.351562 61.171875 167.667969 62.914062 L 169.703125 64.949219 C 171.226562 66.101562 173.070312 66.847656 175.078125 67.019531 C 170.902344 65.667969 167.871094 61.742188 167.871094 57.121094 C 167.871094 52.402344 171.707031 48.5625 176.425781 48.5625 C 180.328125 48.5625 183.5 51.738281 183.5 55.640625 C 183.5 58.890625 180.859375 61.53125 177.609375 61.53125 C 174.882812 61.53125 172.664062 59.3125 172.664062 56.585938 C 172.664062 54.277344 174.542969 52.398438 176.851562 52.398438 L 176.851562 54.710938 C 175.820312 54.710938 174.976562 55.554688 174.976562 56.585938 C 174.976562 58.039062 176.15625 59.21875 177.609375 59.21875 C 179.582031 59.21875 181.1875 57.613281 181.1875 55.640625 C 181.1875 53.011719 179.050781 50.875 176.425781 50.875 C 172.980469 50.875 170.183594 53.675781 170.183594 57.121094 C 170.183594 61.582031 173.8125 65.214844 178.277344 65.214844 L 178.277344 66.796875 C 182.902344 65.738281 186.371094 61.597656 186.371094 56.65625 Z M 186.371094 56.65625 " fill-opacity="1" fill-rule="nonzero"/><g clip-path="url(#e02d413fea)"><path fill="#ee2528" d="M 173.554688 85.464844 L 173.746094 83.160156 C 168.445312 82.722656 163.613281 80.679688 159.660156 77.566406 L 165.027344 72.796875 L 159.824219 67.59375 L 155.039062 72.980469 C 151.492188 68.441406 149.371094 62.757812 149.371094 56.65625 L 147.058594 56.65625 C 147.058594 63.4375 149.464844 69.746094 153.480469 74.730469 L 124.363281 107.484375 L 125.136719 108.257812 L 157.882812 79.144531 C 162.246094 82.675781 167.644531 84.976562 173.554688 85.464844 Z M 173.554688 85.464844 " fill-opacity="1" fill-rule="nonzero"/></g><path fill="#ee2528" d="M 185.875 70.890625 L 184.550781 68.996094 C 182.921875 70.128906 181.117188 70.921875 179.183594 71.339844 L 179.679688 73.601562 C 181.910156 73.113281 183.996094 72.203125 185.875 70.890625 Z M 185.875 70.890625 " fill-opacity="1" fill-rule="nonzero"/><g clip-path="url(#b7725907bd)"><path fill="#ee2528" d="M 187.476562 66.320312 L 189.246094 67.808594 C 189.894531 67.035156 190.480469 66.203125 190.984375 65.328125 L 188.984375 64.171875 C 188.546875 64.929688 188.039062 65.652344 187.476562 66.320312 Z M 187.476562 66.320312 " fill-opacity="1" fill-rule="nonzero"/></g><g clip-path="url(#d30b83445e)"><path fill="#ee2528" d="M 168.21875 43.773438 L 167.023438 41.792969 C 164.085938 43.558594 161.757812 46.128906 160.289062 49.222656 L 162.378906 50.214844 C 163.652344 47.535156 165.671875 45.308594 168.21875 43.773438 Z M 168.21875 43.773438 " fill-opacity="1" fill-rule="nonzero"/></g><path fill="#ee2528" d="M 158.664062 55.421875 L 160.96875 55.582031 C 161.019531 54.863281 161.125 54.140625 161.277344 53.4375 L 159.019531 52.941406 C 158.839844 53.757812 158.722656 54.589844 158.664062 55.421875 Z M 158.664062 55.421875 " fill-opacity="1" fill-rule="nonzero"/><path fill="#ee2528" d="M 174.808594 90.1875 C 168.910156 90.1875 163.113281 88.636719 158.042969 85.703125 L 156.882812 87.703125 C 162.308594 90.839844 168.503906 92.5 174.808594 92.5 C 179.789062 92.5 184.613281 91.496094 189.144531 89.519531 L 188.21875 87.398438 C 183.984375 89.25 179.46875 90.1875 174.808594 90.1875 Z M 174.808594 90.1875 " fill-opacity="1" fill-rule="nonzero"/><path fill="#ee2528" d="M 139.945312 48.296875 C 139.292969 51.015625 138.964844 53.832031 138.964844 56.65625 C 138.964844 63.449219 140.871094 70.058594 144.480469 75.773438 L 146.4375 74.539062 C 143.058594 69.195312 141.277344 63.011719 141.277344 56.65625 C 141.277344 54.011719 141.585938 51.378906 142.195312 48.832031 Z M 139.945312 48.296875 " fill-opacity="1" fill-rule="nonzero"/><path fill="#ee2528" d="M 151.300781 46.683594 L 149.15625 45.816406 C 148.527344 47.367188 148.03125 48.992188 147.683594 50.636719 L 149.945312 51.117188 C 150.269531 49.601562 150.722656 48.113281 151.300781 46.683594 Z M 151.300781 46.683594 " fill-opacity="1" fill-rule="nonzero"/><path fill="#ee2528" d="M 188.007812 82.941406 L 187.042969 80.839844 C 184.929688 81.808594 182.691406 82.5 180.394531 82.882812 L 180.777344 85.164062 C 183.277344 84.746094 185.707031 83.996094 188.007812 82.941406 Z M 188.007812 82.941406 " fill-opacity="1" fill-rule="nonzero"/><g fill="#ffffff" fill-opacity="1"><g transform="translate(191.033856, 84.51238)"><g><path d="M 15.703125 -28.71875 C 19.378906 -28.71875 22.25 -27.828125 24.3125 -26.046875 C 26.382812 -24.265625 27.566406 -21.921875 27.859375 -19.015625 L 27.90625 -18.609375 L 22.28125 -18.609375 L 22.1875 -19.015625 C 21.457031 -22.679688 19.269531 -24.515625 15.625 -24.515625 C 13.34375 -24.515625 11.503906 -23.597656 10.109375 -21.765625 C 8.722656 -19.929688 8.03125 -17.421875 8.03125 -14.234375 C 8.03125 -10.835938 8.722656 -8.21875 10.109375 -6.375 C 11.503906 -4.539062 13.316406 -3.625 15.546875 -3.625 C 17.335938 -3.625 18.773438 -4.128906 19.859375 -5.140625 C 20.953125 -6.148438 21.691406 -7.550781 22.078125 -9.34375 L 22.15625 -9.75 L 27.734375 -9.75 L 27.703125 -9.34375 C 27.398438 -6.289062 26.144531 -3.875 23.9375 -2.09375 C 21.738281 -0.3125 18.859375 0.578125 15.296875 0.578125 C 11.328125 0.578125 8.128906 -0.726562 5.703125 -3.34375 C 3.285156 -5.957031 2.078125 -9.476562 2.078125 -13.90625 C 2.078125 -18.425781 3.351562 -22.023438 5.90625 -24.703125 C 8.46875 -27.378906 11.734375 -28.71875 15.703125 -28.71875 Z M 15.703125 -28.71875 "/></g></g></g><g fill="#ffffff" fill-opacity="1"><g transform="translate(220.324903, 84.51238)"><g><path d="M 4.078125 -19.109375 C 6.066406 -21.222656 8.828125 -22.28125 12.359375 -22.28125 C 15.898438 -22.28125 18.660156 -21.222656 20.640625 -19.109375 C 22.628906 -17.003906 23.625 -14.253906 23.625 -10.859375 C 23.625 -7.484375 22.628906 -4.734375 20.640625 -2.609375 C 18.660156 -0.484375 15.898438 0.578125 12.359375 0.578125 C 8.828125 0.578125 6.066406 -0.484375 4.078125 -2.609375 C 2.085938 -4.734375 1.09375 -7.484375 1.09375 -10.859375 C 1.09375 -14.253906 2.085938 -17.003906 4.078125 -19.109375 Z M 8.375 -5.359375 C 9.34375 -4.046875 10.671875 -3.390625 12.359375 -3.390625 C 14.046875 -3.390625 15.367188 -4.046875 16.328125 -5.359375 C 17.296875 -6.679688 17.78125 -8.507812 17.78125 -10.84375 C 17.78125 -13.1875 17.296875 -15.015625 16.328125 -16.328125 C 15.367188 -17.648438 14.046875 -18.3125 12.359375 -18.3125 C 10.671875 -18.3125 9.34375 -17.648438 8.375 -16.328125 C 7.414062 -15.015625 6.9375 -13.1875 6.9375 -10.84375 C 6.9375 -8.507812 7.414062 -6.679688 8.375 -5.359375 Z M 8.375 -5.359375 "/></g></g></g><g fill="#ffffff" fill-opacity="1"><g transform="translate(245.046874, 84.51238)"><g><path d="M 23.65625 -29.984375 L 23.65625 0 L 18.03125 0 L 18.03125 -3.34375 L 16.40625 -0.9375 C 15.09375 0.0703125 13.210938 0.578125 10.765625 0.578125 C 7.773438 0.578125 5.414062 -0.441406 3.6875 -2.484375 C 1.957031 -4.523438 1.09375 -7.175781 1.09375 -10.4375 C 1.09375 -14.195312 2.085938 -17.109375 4.078125 -19.171875 C 6.066406 -21.242188 8.539062 -22.28125 11.5 -22.28125 C 13.726562 -22.28125 15.429688 -21.867188 16.609375 -21.046875 L 18.03125 -18.8125 L 18.03125 -29.984375 Z M 12.40625 -3.390625 C 14.09375 -3.390625 15.453125 -3.96875 16.484375 -5.125 C 17.515625 -6.28125 18.03125 -8.109375 18.03125 -10.609375 L 18.03125 -11.671875 C 18.03125 -13.921875 17.5 -15.585938 16.4375 -16.671875 C 15.375 -17.765625 14.097656 -18.3125 12.609375 -18.3125 C 10.921875 -18.3125 9.550781 -17.664062 8.5 -16.375 C 7.457031 -15.082031 6.9375 -13.226562 6.9375 -10.8125 C 6.9375 -8.582031 7.429688 -6.785156 8.421875 -5.421875 C 9.410156 -4.066406 10.738281 -3.390625 12.40625 -3.390625 Z M 12.40625 -3.390625 "/></g></g></g><g fill="#ffffff" fill-opacity="1"><g transform="translate(271.359858, 84.51238)"><g><path d="M 3.140625 -28.9375 C 3.710938 -29.5 4.457031 -29.78125 5.375 -29.78125 C 6.300781 -29.78125 7.050781 -29.5 7.625 -28.9375 C 8.195312 -28.382812 8.484375 -27.671875 8.484375 -26.796875 C 8.484375 -25.898438 8.195312 -25.179688 7.625 -24.640625 C 7.050781 -24.097656 6.300781 -23.828125 5.375 -23.828125 C 4.457031 -23.828125 3.710938 -24.097656 3.140625 -24.640625 C 2.566406 -25.179688 2.28125 -25.898438 2.28125 -26.796875 C 2.28125 -27.671875 2.566406 -28.382812 3.140625 -28.9375 Z M 8.203125 0 L 2.5625 0 L 2.5625 -21.703125 L 8.203125 -21.703125 Z M 8.203125 0 "/></g></g></g><g fill="#ffffff" fill-opacity="1"><g transform="translate(282.211418, 84.51238)"><g><path d="M 22.8125 -16.203125 C 22.914062 -15.222656 22.96875 -13.898438 22.96875 -12.234375 L 22.96875 0 L 17.34375 0 L 17.34375 -11.46875 C 17.34375 -12.738281 17.3125 -13.742188 17.25 -14.484375 C 17.0625 -17.035156 15.675781 -18.3125 13.09375 -18.3125 C 11.625 -18.3125 10.441406 -17.625 9.546875 -16.25 C 8.648438 -14.882812 8.203125 -12.769531 8.203125 -9.90625 L 8.203125 0 L 2.5625 0 L 2.5625 -21.703125 L 8.203125 -21.703125 L 8.203125 -18.203125 L 9.875 -20.765625 C 11.289062 -21.773438 13.03125 -22.28125 15.09375 -22.28125 C 17.375 -22.28125 19.175781 -21.75 20.5 -20.6875 C 21.820312 -19.625 22.59375 -18.128906 22.8125 -16.203125 Z M 22.8125 -16.203125 "/></g></g></g><g fill="#ee2528" fill-opacity="1"><g transform="translate(302.461071, 84.811029)"><g><path d="M 30.15625 -28.15625 L 27.789062 -28.15625 L 17.097656 -1.347656 L 6.488281 -28.15625 L 3.957031 -28.15625 L 3.957031 0 L 5.507812 0 L 5.507812 -15.875 C 5.507812 -19.425781 5.507812 -23.382812 5.425781 -26.808594 C 6.691406 -23.421875 8.285156 -19.382812 9.671875 -15.914062 L 16.078125 0 L 18.035156 0 L 24.445312 -15.875 C 25.871094 -19.382812 27.421875 -23.421875 28.6875 -26.851562 C 28.605469 -23.421875 28.648438 -19.425781 28.648438 -15.875 L 28.648438 0 L 30.15625 0 Z M 30.15625 -28.15625 "/></g></g></g><g fill="#ee2528" fill-opacity="1"><g transform="translate(335.594427, 84.811029)"><g><path d="M 16.363281 0 L 17.957031 0 C 17.710938 -2.734375 17.589844 -4.324219 17.589844 -6.570312 L 17.589844 -13.589844 C 17.589844 -14.648438 17.589844 -15.34375 17.507812 -16.40625 C 17.179688 -19.996094 14.894531 -22.078125 10.445312 -22.078125 C 6.082031 -22.078125 2.9375 -19.261719 2.652344 -15.425781 L 4.242188 -15.425781 C 4.691406 -19.179688 7.46875 -20.769531 10.445312 -20.769531 C 13.832031 -20.769531 15.710938 -19.140625 15.957031 -16.242188 C 16.039062 -15.34375 16.039062 -14.488281 16.039062 -13.507812 L 16.039062 -12.527344 L 14.648438 -12.527344 C 7.507812 -12.527344 1.796875 -10.285156 1.796875 -5.304688 C 1.796875 -1.429688 4.488281 0.570312 8.527344 0.570312 C 11.222656 0.570312 13.589844 -0.449219 15.058594 -2.53125 L 16.078125 -4.691406 Z M 8.894531 -0.734375 C 5.304688 -0.734375 3.507812 -2.488281 3.507812 -5.386719 C 3.507812 -9.996094 9.835938 -11.628906 16.039062 -11.222656 L 16.039062 -8.445312 C 16.039062 -4.285156 13.179688 -0.734375 8.894531 -0.734375 Z M 8.894531 -0.734375 "/></g></g></g><g fill="#ee2528" fill-opacity="1"><g transform="translate(356.119153, 84.811029)"><g><path d="M 19.953125 -21.628906 L 18.402344 -21.628906 L 18.402344 -17.140625 L 17.179688 -19.628906 C 15.589844 -21.34375 13.671875 -22.078125 11.179688 -22.078125 C 5.917969 -22.078125 1.222656 -18.242188 1.222656 -10.570312 C 1.222656 -4.082031 4.855469 0.570312 10.652344 0.570312 C 13.386719 0.570312 15.382812 -0.164062 17.140625 -2.121094 L 18.402344 -4.570312 L 18.402344 -3.835938 C 18.402344 -2.164062 18.402344 -1.183594 18.363281 0.164062 C 18.242188 4.570312 15.671875 7.550781 10.8125 7.550781 C 7.222656 7.550781 4.203125 6 3.714844 2.246094 L 3.671875 1.714844 L 2.082031 1.714844 L 2.164062 2.246094 C 2.773438 7.058594 6.242188 8.894531 10.730469 8.894531 C 16.40625 8.894531 19.75 5.507812 19.914062 0.285156 C 19.953125 -1.0625 19.953125 -2.734375 19.953125 -5.632812 Z M 10.8125 -0.734375 C 5.671875 -0.734375 2.9375 -5.347656 2.9375 -10.773438 C 2.9375 -16.8125 6.367188 -20.769531 11.179688 -20.769531 C 14.488281 -20.769531 18.402344 -18.691406 18.402344 -12.039062 L 18.402344 -9.957031 C 18.402344 -3.101562 14.894531 -0.734375 10.8125 -0.734375 Z M 10.8125 -0.734375 "/></g></g></g><g fill="#ee2528" fill-opacity="1"><g transform="translate(379.051349, 84.811029)"><g><path d="M 20.035156 -11.34375 C 20.035156 -16.933594 17.058594 -22.078125 10.976562 -22.078125 C 5.507812 -22.078125 1.222656 -17.628906 1.222656 -10.8125 C 1.222656 -3.265625 5.46875 0.570312 10.609375 0.570312 C 14.773438 0.570312 18.527344 -1.835938 19.710938 -6.691406 L 18.117188 -6.691406 C 17.058594 -2.613281 13.957031 -0.734375 10.691406 -0.734375 C 6.9375 -0.734375 3.101562 -3.347656 2.855469 -10.324219 L 19.996094 -10.324219 C 20.035156 -10.855469 20.035156 -11.140625 20.035156 -11.34375 Z M 10.894531 -20.769531 C 14.527344 -20.769531 18.199219 -18.324219 18.445312 -11.671875 L 2.855469 -11.671875 C 3.101562 -17.832031 7.140625 -20.769531 10.894531 -20.769531 Z M 10.894531 -20.769531 "/></g></g></g></svg>